<?xml version="1.0" encoding="iso-8859-1"?>
<!-- Generator: Adobe Illustrator 16.0.0, SVG Export Plug-In . SVG Version: 6.00 Build 0)  -->
<!DOCTYPE svg PUBLIC "-//W3C//DTD SVG 1.1//EN" "http://www.w3.org/Graphics/SVG/1.1/DTD/svg11.dtd">
<svg version="1.1" id="Capa_1" xmlns="http://www.w3.org/2000/svg" xmlns:xlink="http://www.w3.org/1999/xlink" x="0px" y="0px"
	 width="153.939px" height="153.939px" viewBox="0 0 153.939 153.939" style="enable-background:new 0 0 153.939 153.939;"
	 xml:space="preserve">
<g>
	<g>
		<path d="M88.473,61.606C104.834,41.42,89.25,14.987,71.413,0c3.335,16.31-23.724,39.24-6.225,61.636
			c-22.386,1.166-39.105,5.491-39.105,10.712v70.541c0,6.097,22.783,11.05,50.883,11.05c28.111,0,50.892-4.948,50.892-11.05V72.349
			C127.857,67.111,111.007,62.745,88.473,61.606z M76.965,81.172c-32.101,0-48.654-6.184-48.654-8.823
			c0-2.654,13.683-7.47,38.682-8.545c1.723,1.888,3.67,3.773,6.119,5.645c-2.488-2.249-4.074-4.457-5.084-6.646l-0.583-1.294
			c-3.855-10.977,7.587-21.584,9.795-34.619c7.819,12.657,14.391,24.879,9.244,35.369l-0.341,0.651
			c-0.761,1.4-1.686,2.766-2.896,4.096c1.248-1.043,2.309-2.132,3.344-3.217c25.228,1.041,39.025,5.906,39.025,8.571
			C125.63,74.988,109.07,81.172,76.965,81.172z"/>
		<path d="M76.973,51.062c-1.23,0-2.225,0.998-2.225,2.23v19.057c0,1.233,1.002,2.224,2.225,2.224c1.231,0,2.229-0.995,2.229-2.224
			V53.292C79.202,52.06,78.205,51.062,76.973,51.062z"/>
	</g>
</g>
<g>
</g>
<g>
</g>
<g>
</g>
<g>
</g>
<g>
</g>
<g>
</g>
<g>
</g>
<g>
</g>
<g>
</g>
<g>
</g>
<g>
</g>
<g>
</g>
<g>
</g>
<g>
</g>
<g>
</g>
</svg>
